<?xml version="1.0" encoding="UTF-8" standalone="no"?>
<!-- Created with Inkscape (http://www.inkscape.org/) -->

<svg
   width="40"
   height="40"
   viewBox="0 0 10.583333 10.583333"
   version="1.1"
   id="svg1"
   sodipodi:docname="pluginIcon.svg"
   inkscape:version="1.4.3 (0d15f75042, 2025-12-25)"
   xmlns:inkscape="http://www.inkscape.org/namespaces/inkscape"
   xmlns:sodipodi="http://sodipodi.sourceforge.net/DTD/sodipodi-0.dtd"
   xmlns="http://www.w3.org/2000/svg"
   xmlns:svg="http://www.w3.org/2000/svg">
  <sodipodi:namedview
     id="namedview1"
     pagecolor="#ffffff"
     bordercolor="#000000"
     borderopacity="0.25"
     inkscape:showpageshadow="2"
     inkscape:pageopacity="0.0"
     inkscape:pagecheckerboard="0"
     inkscape:deskcolor="#d1d1d1"
     inkscape:zoom="22.375"
     inkscape:cx="20"
     inkscape:cy="20"
     inkscape:window-width="2560"
     inkscape:window-height="1352"
     inkscape:window-x="0"
     inkscape:window-y="0"
     inkscape:window-maximized="1"
     inkscape:current-layer="svg1" />
  <defs
     id="defs1" />
  <g
     id="layer1">
    <text
       xml:space="preserve"
       style="font-size:5.64444px;writing-mode:lr-tb;direction:ltr;fill:#000000;stroke-width:0.264583"
       x="0.68508857"
       y="7.4271994"
       id="text1"><tspan
         id="tspan1"
         style="font-size:5.64444px;stroke-width:0.264583"
         x="0.68508857"
         y="7.4271994">IVE</tspan></text>
  </g>
  <path
     style="fill:#000000;stroke-width:0.0446927"
     d="m 4.6927374,20.290503 v -7.75419 h 1.027933 1.027933 v 7.75419 7.75419 h -1.027933 -1.027933 z"
     id="path1"
     transform="scale(0.26458333)" />
  <path
     style="fill:#000000;stroke-width:0.0446927"
     d="m 4.6927374,20.290503 v -7.75419 h 1.027933 1.027933 v 7.75419 7.75419 h -1.027933 -1.027933 z"
     id="path2"
     transform="scale(0.26458333)" />
  <path
     style="fill:#999999;stroke-width:0.0446927"
     d="m 4.6927374,20.290503 v -7.75419 h 1.027933 1.027933 v 7.75419 7.75419 h -1.027933 -1.027933 z"
     id="path3"
     transform="scale(0.26458333)" />
  <path
     style="fill:#999999;stroke-width:0.0446927"
     d="m 14.935246,27.856929 c -0.0412,-0.104094 -1.373092,-3.588789 -2.959757,-7.743766 l -2.8848464,-7.554504 1.0493814,-0.012 c 0.57716,-0.0066 1.063682,0.0035 1.08116,0.02235 0.01748,0.01889 1.1341,2.965633 2.481381,6.548314 1.347283,3.582682 2.460618,6.513495 2.474078,6.512917 0.01346,-5.77e-4 1.131868,-2.941918 2.485349,-6.536313 l 2.460874,-6.535263 1.058679,-0.01198 c 0.582273,-0.0066 1.058526,0.0035 1.058339,0.02235 -1.87e-4,0.01888 -1.322915,3.503602 -2.939394,7.743825 l -2.939054,7.709497 -1.175639,0.01192 -1.17564,0.01192 z"
     id="path4"
     transform="scale(0.26458333)" />
  <path
     style="fill:#ff0000;stroke-width:0.0446927"
     d="m 25.608939,20.290503 v -7.75419 h 4.893854 4.893855 v 0.871508 0.871509 h -3.865922 -3.865922 v 2.324022 2.324022 h 3.687151 3.687151 v 0.849162 0.849162 h -3.687151 -3.687151 v 2.837989 2.837989 h 3.955308 3.955307 v 0.871508 0.871509 h -4.98324 -4.98324 z"
     id="path5"
     transform="scale(0.26458333)" />
  <path
     style="fill:#008080;stroke-width:0.0446927"
     d="M 4.6927374,20.268156 V 12.49162 h 1.027933 1.027933 v 7.776536 7.776537 h -1.027933 -1.027933 z"
     id="path6"
     transform="scale(0.26458333)" />
  <path
     style="fill:#008080;stroke-width:0.0446927"
     d="M 12.353423,21.027933 C 10.883769,17.181006 9.5564549,13.706704 9.4038346,13.307263 L 9.1263431,12.581006 h 1.0398239 1.039823 l 0.224195,0.592178 c 0.123307,0.325699 1.032878,2.734079 2.02127,5.351956 2.391753,6.334856 2.687708,7.106145 2.726728,7.106145 0.01825,0 0.10405,-0.186034 0.190662,-0.413408 0.522517,-1.37172 3.075863,-8.126184 3.847814,-10.178771 l 0.916056,-2.435754 1.031407,-0.012 c 0.567275,-0.0066 1.031409,-0.0043 1.031409,0.0052 0,0.05982 -5.810912,15.325147 -5.849294,15.366158 -0.01529,0.01634 -0.543707,0.03645 -1.174259,0.04469 l -1.146459,0.01499 z"
     id="path7"
     transform="scale(0.26458333)" />
  <path
     style="fill:#008080;stroke-width:0.0446927"
     d="M 4.6927374,20.268156 V 12.49162 h 1.027933 1.027933 v 7.776536 7.776537 h -1.027933 -1.027933 z"
     id="path8"
     transform="scale(0.26458333)" />
  <path
     style="fill:#008080;stroke-width:0.0446927"
     d="m 25.608939,20.290503 v -7.75419 h 4.893854 4.893855 v 0.871508 0.871509 h -3.865922 -3.865922 v 2.324022 2.324022 h 3.687151 3.687151 v 0.849162 0.849162 h -3.687151 -3.687151 v 2.837989 2.837989 h 3.955308 3.955307 v 0.871508 0.871509 h -4.98324 -4.98324 z"
     id="path9"
     transform="scale(0.26458333)" />
  <path
     style="fill:#ff0000;stroke-width:0.0446927"
     d="M 4.6927374,20.268156 V 12.49162 h 1.027933 1.027933 v 7.776536 7.776537 h -1.027933 -1.027933 z"
     id="path10"
     transform="scale(0.26458333)" />
  <path
     style="fill:#008000;stroke-width:0.0446927"
     d="M 14.293199,26.044344 C 13.88295,24.969117 12.560603,21.50717 11.354651,18.351128 10.148699,15.195086 9.1620112,12.6057 9.1620112,12.596938 c 0,-0.0088 0.4530117,-0.01593 1.0066928,-0.01593 h 1.006693 l 0.04838,0.122905 c 0.08757,0.222478 0.748112,1.965781 1.545233,4.078212 1.871619,4.959928 2.464507,6.524356 2.88877,7.622462 0.434844,1.125497 0.478074,1.2267 0.523995,1.2267 0.01834,0 0.09364,-0.14581 0.167328,-0.324022 0.118511,-0.286615 3.308665,-8.711831 4.344882,-11.474861 0.216637,-0.577653 0.407691,-1.085475 0.424565,-1.128491 0.02795,-0.07125 0.119819,-0.07821 1.031484,-0.07821 0.550443,0 1.000805,0.0085 1.000805,0.0189 0,0.01608 -0.414944,1.116565 -1.720169,4.562108 -0.531577,1.403261 -0.88848,2.342148 -1.342147,3.530726 -0.262705,0.688268 -0.765267,2.005587 -1.116804,2.927374 -0.351537,0.921788 -0.843937,2.208939 -1.094222,2.860336 -0.250286,0.651396 -0.474331,1.23659 -0.497879,1.300429 -0.04244,0.115055 -0.04814,0.116327 -0.651243,0.145251 -0.334636,0.01605 -0.851617,0.02902 -1.148848,0.02883 l -0.54042,-3.48e-4 z"
     id="path11"
     transform="scale(0.26458333)" />
</svg>
